# xmcd CD database file
# Copyright (C) 1993-1996 Ti Kan
#
# Track frame offsets:
#	150
#	10412
#	20912
#	30050
#	32807
#	42445
#	49742
#	65320
#	71932
#	76395
#	91732
#	102275
#	114942
#	124987
#	145217
#	154340
#	159395
#	169992
#	181407
#	192410
#
# Disc length: 2786 seconds
#
# Revision: 1
# Processed by: cddbd v1.4b41PL1 Copyright (c) Steve Scherf et al.
# Submitted via: CDValet v3.30 - Copyright (c) 1997 Greg Leichner
#
DISCID=100ae014
DTITLE=Johannes Nitsch - Jona
DYEAR=1900
DGENRE=
TTITLE0=Vorspiel
TTITLE1=Gott spricht, egal ob´s uns gefaellt
TTITLE2=Das kann doch wohl dein Ernst nicht sein
TTITLE3=Auf, Jona, geh
TTITLE4=Weiss nicht, weshalb ich gehen muss
TTITLE5=Ich hoer´ von Jona
TTITLE6=Wohin soll´t ich gehen (Ps. 139)
TTITLE7=Hey, Jona
TTITLE8=Was denn wohl dahinter steht
TTITLE9=Ich bin ein Hebraeer
TTITLE10=Seht der ganzen Schoepfung Maechte
TTITLE11=Als all meine Hoffnungen sanken
TTITLE12=Auf, Jona, geh
TTITLE13=Hoert, Leute, Gottes Klage
TTITLE14=Ich habe eifrig nachgedacht
TTITLE15=Erbarm dich ueber uns, o Herr
TTITLE16=Gott, du zerstoerst nicht unser Land
TTITLE17=Hier sitz ich und warte
TTITLE18=Denkst du noch an den alten Mann
TTITLE19=Finale
EXTD=
EXTT0=
EXTT1=
EXTT2=
EXTT3=
EXTT4=
EXTT5=
EXTT6=
EXTT7=
EXTT8=
EXTT9=
EXTT10=
EXTT11=
EXTT12=
EXTT13=
EXTT14=
EXTT15=
EXTT16=
EXTT17=
EXTT18=
EXTT19=
PLAYORDER=
